# xmcd
#
# Track frame offsets:
#	150
#	11657
#	27055
#	42062
#	53825
#	72212
#	88435
#	102907
#	120287
#	136222
#	151510
#	161712
#
# Disc length: 2381 seconds
#
# Revision: 1
# Processed by: cddbd v1.5.1PL2 Copyright (c) Steve Scherf et al.
# Submitted via: audiograbber 1.83.01
#
DISCID=8c094b0c
DTITLE=Kevin Spencer Family - Some Dawning
DYEAR=1992
DGENRE=Southern Gospel
TTITLE0=Some Dawning
TTITLE1=I'm Laying Up Treasures
TTITLE2=Striving
TTITLE3=Working My Way Back To Calvary
TTITLE4=It'll Be Worth It After All
TTITLE5=We Could Never Do Too Much
TTITLE6=I Heard About A Stone
TTITLE7=I've Just Seen The Rock Of Ages
TTITLE8=If You Ever Look For Me
TTITLE9=The Darkest Hour Is Just Before Dawn
TTITLE10=I'll Meet You On The Other Side Of Jordan
TTITLE11=Pass Me Not
EXTD=
EXTT0=
EXTT1=
EXTT2=
EXTT3=
EXTT4=
EXTT5=
EXTT6=
EXTT7=
EXTT8=
EXTT9=
EXTT10=
EXTT11=
PLAYORDER=
